<?xml version="1.0" encoding="utf-8"?>
<!-- Generator: Adobe Illustrator 26.4.1, SVG Export Plug-In . SVG Version: 6.00 Build 0)  -->
<svg version="1.1" id="Layer_1" xmlns="http://www.w3.org/2000/svg" xmlns:xlink="http://www.w3.org/1999/xlink" x="0px" y="0px"
	 viewBox="0 0 512 512" style="enable-background:new 0 0 512 512;" xml:space="preserve" width='70px' height='70px'>
<style type="text/css">
	.st0{fill:#3F3F46;stroke:#FFFFFF;stroke-width:8;stroke-miterlimit:10;}
</style>
<g>
	<g>
		<path class="st0" d="M501,181.4l-2.3-7.5l-7.6,2c-4.8,1.3-9.4,1.9-14.2,1.9c-31.2,0-56.6-25.4-56.6-56.6c0-2.4,0.2-4.8,0.6-7.2
			l0.9-5.6l-5-2.7c-6.5-3.6-12.2-8.5-17-14.7l-6.4-8.2l-6.4,8.2c-10.9,14-27.2,22.1-44.8,22.1c-31.2,0-56.6-25.4-56.6-56.6
			c0-14.8,5.8-28.8,16.2-39.6l10.9-11.2l-15.5-2.4C283.3,1.1,269.4,0,256,0C114.8,0,0,114.8,0,256s114.8,256,256,256
			s256-114.8,256-256C512,230.7,508.3,205.7,501,181.4z M256,495.8C123.8,495.8,16.2,388.2,16.2,256S123.8,16.2,256,16.2
			c8.1,0,16.4,0.4,24.9,1.3c-7.4,11.6-11.4,25.1-11.4,39.1c0,40.1,32.6,72.8,72.8,72.8c19.4,0,37.6-7.6,51.2-21.1
			c3.4,3.3,7,6.3,10.9,8.9c-0.1,1.4-0.1,2.8-0.1,4.1c0,40.1,32.6,72.8,72.8,72.8c3.6,0,7.1-0.3,10.6-0.8c5.5,20.5,8.3,41.5,8.3,62.8
			C495.8,388.2,388.2,495.8,256,495.8z"/>
	</g>
</g>
<g>
	<g>
		<path class="st0" d="M175.2,113.2c-25.3,0-45.8,20.6-45.8,45.8s20.6,45.8,45.8,45.8c25.3,0,45.8-20.6,45.8-45.8
			S200.4,113.2,175.2,113.2z M175.2,188.6c-16.3,0-29.6-13.3-29.6-29.6s13.3-29.6,29.6-29.6s29.6,13.3,29.6,29.6
			S191.5,188.6,175.2,188.6z"/>
	</g>
</g>
<g>
	<g>
		<path class="st0" d="M115.9,210.2c-19.3,0-35,15.7-35,35c0,19.3,15.7,35,35,35s35-15.7,35-35C150.9,225.9,135.2,210.2,115.9,210.2
			z M115.9,264.1c-10.4,0-18.8-8.5-18.8-18.8c0-10.4,8.5-18.8,18.8-18.8s18.8,8.5,18.8,18.8S126.3,264.1,115.9,264.1z"/>
	</g>
</g>
<g>
	<g>
		<path class="st0" d="M385.3,296.4c-19.3,0-35,15.7-35,35s15.7,35,35,35s35-15.7,35-35S404.7,296.4,385.3,296.4z M385.3,350.3
			c-10.4,0-18.8-8.5-18.8-18.8s8.5-18.8,18.8-18.8s18.8,8.5,18.8,18.8S395.7,350.3,385.3,350.3z"/>
	</g>
</g>
<g>
	<g>
		<path class="st0" d="M309.9,361.1c-19.3,0-35,15.7-35,35c0,19.3,15.7,35,35,35s35-15.7,35-35C344.9,376.8,329.2,361.1,309.9,361.1
			z M309.9,415c-10.4,0-18.8-8.5-18.8-18.8s8.5-18.8,18.8-18.8s18.8,8.5,18.8,18.8C328.7,406.5,320.3,415,309.9,415z"/>
	</g>
</g>
<g>
	<g>
		<path class="st0" d="M288.3,264.1c-19.3,0-35,15.7-35,35c0,19.3,15.7,35,35,35c19.3,0,35-15.7,35-35
			C323.4,279.8,307.7,264.1,288.3,264.1z M288.3,318c-10.4,0-18.8-8.5-18.8-18.8s8.5-18.8,18.8-18.8s18.8,8.5,18.8,18.8
			C307.2,309.5,298.7,318,288.3,318z"/>
	</g>
</g>
<g>
	<g>
		<rect x="304.5" y="177.8" class="st0" width="21.6" height="16.2"/>
	</g>
</g>
<g>
	<g>
		<rect x="336.8" y="210.2" class="st0" width="21.6" height="16.2"/>
	</g>
</g>
<g>
	<g>
		<rect x="347.6" y="167.1" class="st0" width="21.6" height="16.2"/>
	</g>
</g>
<g>
	<g>
		<rect x="99.7" y="371.9" class="st0" width="21.6" height="16.2"/>
	</g>
</g>
<g>
	<g>
		<rect x="121.3" y="339.5" class="st0" width="21.6" height="16.2"/>
	</g>
</g>
<g>
	<g>
		<rect x="142.8" y="371.9" class="st0" width="21.6" height="16.2"/>
	</g>
</g>
</svg>
