<?xml version="1.0" encoding="utf-8"?>
<!-- Generator: Adobe Illustrator 26.4.1, SVG Export Plug-In . SVG Version: 6.00 Build 0)  -->
<svg version="1.1" id="a" xmlns="http://www.w3.org/2000/svg" xmlns:xlink="http://www.w3.org/1999/xlink" x="0px" y="0px"
	 viewBox="0 0 750 750" style="enable-background:new 0 0 750 750;" xml:space="preserve">
<style type="text/css">
	.st0{fill:#27272A;}
	.st1{fill:#FFFFFF;}
</style>
<rect class="st0" width="750" height="750"/>
<path class="st1" d="M22.8,515c40.9-44.2,198.3-273.7,229.8-328.4c6.1-9.4,11.1-6.7,14.2-3.4c16.5,65.8,63.6,304.5,74.1,373.7
	c-0.6,12.1-4.6,12.7-4.6,12.7c-9.3,4.6-122-77.7-140.2-85.4c-14.4-8.1-73.8-38.7-76.7-41c-13.4-17.1,44.1-18,80.7-27
	c100-20.8,190.7-51.2,277-82C442.3,353.4,333.6,390,290.1,403c-8.7,2.3-122.5,30.9-134.1,34.3c-11.2,3.3-15.4,3.8-14.8,5
	c0.6,1.2,173.1,97.5,177.1,99.8c-7.4-72.4-49.7-245.2-64-319.6C206.7,297.7,96.8,448,27.6,514.9L22.8,515L22.8,515z"/>
<g>
	<path class="st1" d="M363.1,388.4l18.3-4.9c-46.1,297.7,538.8,99.8,253-123.9c-118.2-85.1-248.1-33.9-306.5,90.8
		c68.3-193.1,320.9-183.6,394.6,4.6c37.8,138.7-159,222.7-266.7,193.7C385.9,534.1,343.9,452,363.1,388.4z"/>
	<path class="st1" d="M375.5,361.4l23.2-7.1c22.1-40,106.2-88.5,143.8-104.2C496.5,255.9,395,314.8,375.5,361.4L375.5,361.4z"/>
</g>
</svg>
