<?xml version="1.0" encoding="utf-8"?>
<!-- Generator: Adobe Illustrator 26.4.1, SVG Export Plug-In . SVG Version: 6.00 Build 0)  -->
<svg version="1.1" id="a" xmlns="http://www.w3.org/2000/svg" xmlns:xlink="http://www.w3.org/1999/xlink" x="0px" y="0px"
	 viewBox="0 0 209 39.2" style="enable-background:new 0 0 209 39.2;" xml:space="preserve">
<style type="text/css">
	.st0{fill:#27272A;}
</style>
<path class="st0" d="M69.1,33.7c4.1-4.4,19.9-27.5,23.1-33c0.6-0.9,1.1-0.7,1.4-0.3c1.7,6.6,6.4,30.6,7.4,37.6
	c-0.1,1.2-0.5,1.3-0.5,1.3c-0.9,0.5-12.3-7.8-14.1-8.6c-1.4-0.8-7.4-3.9-7.7-4.1c-1.3-1.7,4.4-1.8,8.1-2.7
	c10.1-2.1,19.2-5.1,27.8-8.2c-3.5,1.9-14.4,5.6-18.8,6.9c-0.9,0.2-12.3,3.1-13.5,3.4c-1.1,0.3-1.5,0.4-1.5,0.5
	c0.1,0.1,17.4,9.8,17.8,10c-0.7-7.3-5-24.6-6.4-32.1c-4.8,7.6-15.8,22.7-22.8,29.4L69.1,33.7L69.1,33.7z"/>
<g>
	<path class="st0" d="M103.3,20.9l1.8-0.5c-4.6,29.9,54.1,10,25.4-12.4c-11.9-8.6-24.9-3.4-30.8,9.1c6.9-19.4,32.2-18.5,39.7,0.5
		c3.8,13.9-16,22.4-26.8,19.5C105.6,35.6,101.4,27.3,103.3,20.9z"/>
	<path class="st0" d="M104.6,18.2l2.3-0.7c2.2-4,10.7-8.9,14.5-10.5C116.7,7.6,106.5,13.5,104.6,18.2L104.6,18.2z"/>
</g>
</svg>
