<?xml version="1.0" encoding="UTF-8"?>
<svg id="a" data-name="Calque 1" xmlns="http://www.w3.org/2000/svg" viewBox="0 0 980 542.16">
  <path d="M0,465.89C56.96,404.46,275.83,85.07,319.74,9.04c8.46-13.14,15.5-9.39,19.73-4.69,22.95,91.52,88.44,423.56,103.06,519.89-.81,16.85-6.42,17.66-6.42,17.66-13,6.45-169.75-108.09-195.01-118.77-20.06-11.24-102.72-53.77-106.73-56.98-18.63-23.81,61.32-25.07,112.26-37.61,139.14-28.96,265.28-71.2,385.3-114.07-48.33,26.53-199.53,77.44-260.01,95.5-12.04,3.21-170.43,42.96-186.49,47.66-15.58,4.56-21.36,5.31-20.56,6.91,.8,1.61,240.75,135.62,246.37,138.83-10.35-100.78-69.11-341.18-89.08-444.59C255.81,163.53,102.99,372.62,6.75,465.65l-6.75,.23Z" style="fill: #27272a;"/>
  <g>
    <path d="M473.41,289.74l25.43-6.81c-64.2,414.09,749.62,138.86,351.96-172.3C686.38-7.82,505.59,63.46,424.4,236.94c95.04-268.63,446.41-255.48,549,6.44,52.55,193.02-221.24,309.87-371.07,269.44-97.23-20.46-155.66-134.68-128.92-223.08Z" style="fill: #27272a;"/>
    <path d="M490.76,252.13l32.32-9.92c30.68-55.65,147.69-123.1,200.11-144.97-64.12,8.18-205.41,90.04-232.43,154.9Z" style="fill: #27272a;"/>
  </g>
</svg>