<?xml version="1.0" encoding="UTF-8"?>
<svg id="a" data-name="Calque 1" xmlns="http://www.w3.org/2000/svg" viewBox="0 0 3002 240.33">
  <path d="M1,200.47c860,78,1395.49,14.51,1426.34,14.23,30.85-.28,43.6-1.08,53.79-3.3,10.19-2.22,17.82-5.86,21.97-8.99s4.84-5.75-2.28-5.35c-7.12,.4-22.03,3.81-28.75,9.5s-5.24,13.66,9.39,19.58c14.63,5.92,42.41,9.79,67.27,9.29,24.87-.5,46.83-5.38,57.32-11.48,10.49-6.1,9.5-13.43,4.93-17.77-4.57-4.34-12.74-5.67-17.55-6.45s-6.26-1-6.32,.14c-.05,1.14,1.3,3.63-.08,7.09-1.38,3.46-5.49,7.88-15.42,11.12-9.94,3.24-25.72,5.31-38.72,3.16-13.01-2.15-23.26-8.53-22.63-10.35s12.12,.91,24.53,.74c12.41-.17,25.73-3.24,32.9-6.83,7.17-3.59,8.2-7.68,7.51-12.01-.68-4.33-3.07-8.88-7.8-8.94-4.72-.06-11.78,4.38-19.3,5.81-7.51,1.42-15.48-.17-20.4-1.4-4.91-1.23-6.77-2.1-7.49-3.26-.71-1.16-.28-2.62,1.83-23.31s5.88-60.61,7.77-82.24,1.89-24.95,1.91-26.34,.08-.85,2.89-1,8.38-1,10.76-9.16c2.39-8.17,1.59-23.65-.23-32.3-1.82-8.65-4.67-10.47-7.63-9.33-2.96,1.14-6.03,5.24-6.55,9.73s1.54,9.39,4.24,9.03c2.71-.36,6.06-5.97,2.15-7.66-3.91-1.69-15.1,.54-22.09,5.55-7,5.01-9.8,12.81-21.37,19.62-11.57,6.81-31.9,12.64-42.29,11.86-10.39-.79-10.85-8.18-8.8-10.63s6.6,.06,7.13,6.4c.52,6.34-2.99,16.52-8.66,33.87-5.67,17.35-13.51,41.88-18.93,57.34-5.42,15.46-8.42,21.85-7.52,24.19,.89,2.34,5.67,.63,16.77-1.81,11.1-2.45,28.52-5.64,43.03-4.78,14.51,.85,26.13,5.75,29.03,12.01,2.9,6.26-2.9,13.89-17.43,17.38-14.53,3.49-37.78,2.84-52.78-.61-14.99-3.45-21.73-9.69-25.55-13.3-3.82-3.61-4.73-4.6-1.77-3.21,2.95,1.38,9.76,5.12,24.37,6.92,14.61,1.79,37.01,1.64,49.1-.08,12.09-1.72,13.86-4.99,14.56-7.04s.34-2.89-3.69-15.47c-4.03-12.58-11.72-36.91-17.57-54.82s-9.85-29.4-11.62-35.31-1.3-6.25,4.99-6.1,18.41,.78,28.13,.9c9.71,.12,17.03-.27,21.59-.52,4.56-.25,6.38-.35,7.8-1.33,1.42-.98,2.43-2.85,6.33-9.43,3.9-6.58,10.69-17.86,19.42-23.24,8.74-5.38,19.43-4.85,28.7-.15,9.27,4.7,17.13,13.58,26.35,19.27,9.22,5.69,19.81,8.2,26.1,8.59,6.29,.4,8.28-1.32,8.16-3.64s-2.35-5.26-5.67-5.78c-3.32-.52-7.72,1.36-10.45,5.57s-3.77,10.72-9.54,27.74c-5.76,17.02-16.25,44.54-22.91,60.7s-9.5,20.97-6.99,21.22,10.36-4.08,24.37-5.05c14-.97,34.15,1.42,46.22,4.33,12.07,2.9,16.05,6.32,13.83,11.44-2.22,5.12-10.64,11.95-21.68,15.51-11.04,3.56-24.7,3.85-35.63,1.18-10.93-2.68-19.13-8.32-22.89-13.13-3.76-4.81-3.08-8.8-1.65-8.99,1.42-.19,3.58,3.4,10.17,6.98,6.59,3.58,17.6,7.14,28.49,7.22s21.66-3.33,27.85-6.09,7.8-4.9,7.84-7.91-1.49-6.91-7.95-23.84c-6.45-16.93-17.82-46.88-23.61-61.94-5.79-15.05-6-15.21-7.47-15.42-1.47-.21-4.21-.48-13.96-.57-9.75-.08-26.52,.02-37.5-.02-10.98-.03-16.17-.2-18.73,.15-2.56,.36-2.48,1.24-.76,20.99s5.07,58.36,6.78,78.04c1.7,19.68,1.76,20.42,1.92,20.8,.16,.37,.43,.37,3.73,.37s9.63,0,13.65,1.77c4.02,1.77,5.73,5.29,6.75,7.46,1.03,2.17,1.37,2.97,1.97,3.43,.6,.45,1.45,.55,6,1.12,4.55,.57,12.79,1.62,18.69,4.24,5.89,2.62,9.43,6.82,11.14,10.68,1.71,3.86,1.6,7.39,2.25,9.16s2.06,1.77,5.48,1.77,8.83,0,34.54,.11c25.7,.11,442.87-57.59,1337.87,1.41" style="fill: none; stroke: #332c2b; stroke-linecap: round; stroke-linejoin: round; stroke-width: 2px;"/>
</svg>