<svg width="517" height="120" viewBox="0 0 517 120" fill="none" xmlns="http://www.w3.org/2000/svg">
<path d="M242.52 23.76L243.12 22.92H251.36L251.64 23.76H242.52ZM261.96 36.52C262.067 36.52 262.12 36.6 262.12 36.76C262.12 36.92 262.067 37 261.96 37C261.187 37 260.4 36.9733 259.6 36.92C258.8 36.8667 258.027 36.84 257.28 36.84C256.453 36.84 255.733 36.8667 255.12 36.92C254.507 36.9733 253.827 37 253.08 37C252.973 37 252.92 36.92 252.92 36.76C252.92 36.6 252.973 36.52 253.08 36.52C254.493 36.52 255.373 36.32 255.72 35.92C256.067 35.4933 255.973 34.7067 255.44 33.56L246.56 14.8L247.56 13.56L239.8 31.92C239.133 33.5467 239.093 34.72 239.68 35.44C240.267 36.16 241.427 36.52 243.16 36.52C243.293 36.52 243.36 36.6 243.36 36.76C243.36 36.92 243.293 37 243.16 37C242.36 37 241.627 36.9733 240.96 36.92C240.293 36.8667 239.453 36.84 238.44 36.84C237.48 36.84 236.707 36.8667 236.12 36.92C235.56 36.9733 234.867 37 234.04 37C233.933 37 233.88 36.92 233.88 36.76C233.88 36.6 233.933 36.52 234.04 36.52C234.76 36.52 235.387 36.3867 235.92 36.12C236.453 35.8267 236.947 35.3333 237.4 34.64C237.88 33.92 238.4 32.8933 238.96 31.56L247.4 11.64C247.453 11.56 247.547 11.52 247.68 11.52C247.813 11.52 247.893 11.56 247.92 11.64L257.36 31.52C257.973 32.8267 258.52 33.8533 259 34.6C259.48 35.32 259.947 35.8267 260.4 36.12C260.88 36.3867 261.4 36.52 261.96 36.52ZM263.686 37C263.606 37 263.566 36.92 263.566 36.76C263.566 36.6 263.606 36.52 263.686 36.52C264.726 36.52 265.406 36.3467 265.726 36C266.046 35.6267 266.206 34.88 266.206 33.76V13.08C266.206 12.1467 266.113 11.4667 265.926 11.04C265.739 10.5867 265.406 10.36 264.926 10.36C264.526 10.36 263.913 10.5467 263.086 10.92C263.006 10.9733 262.926 10.92 262.846 10.76C262.766 10.6 262.779 10.5067 262.886 10.48L268.006 8.04C268.059 8.01333 268.126 8 268.206 8C268.259 8 268.326 8.04 268.406 8.12C268.513 8.17333 268.566 8.24 268.566 8.32V33.76C268.566 34.88 268.713 35.6267 269.006 36C269.299 36.3467 269.979 36.52 271.046 36.52C271.126 36.52 271.166 36.6 271.166 36.76C271.166 36.92 271.126 37 271.046 37C270.593 37 270.046 36.9867 269.406 36.96C268.766 36.9333 268.086 36.92 267.366 36.92C266.673 36.92 265.993 36.9333 265.326 36.96C264.686 36.9867 264.139 37 263.686 37ZM274.518 37C274.465 37 274.438 36.92 274.438 36.76C274.438 36.6 274.465 36.52 274.518 36.52C275.558 36.52 276.238 36.3467 276.558 36C276.905 35.6267 277.078 34.88 277.078 33.76V26.28C277.078 25.3467 276.985 24.6667 276.798 24.24C276.612 23.7867 276.265 23.56 275.758 23.56C275.545 23.56 275.292 23.6133 274.998 23.72C274.705 23.8 274.358 23.9333 273.958 24.12C273.852 24.1467 273.758 24.0933 273.678 23.96C273.625 23.8 273.638 23.6933 273.718 23.64L278.918 21.24C278.998 21.2133 279.052 21.2 279.078 21.2C279.132 21.2 279.198 21.24 279.278 21.32C279.358 21.3733 279.398 21.44 279.398 21.52C279.398 21.7333 279.385 22.2533 279.358 23.08C279.332 23.9067 279.318 24.96 279.318 26.24V33.76C279.318 34.88 279.465 35.6267 279.758 36C280.078 36.3467 280.772 36.52 281.838 36.52C281.918 36.52 281.958 36.6 281.958 36.76C281.958 36.92 281.918 37 281.838 37C281.358 37 280.798 36.9867 280.158 36.96C279.545 36.9333 278.892 36.92 278.198 36.92C277.505 36.92 276.838 36.9333 276.198 36.96C275.585 36.9867 275.025 37 274.518 37ZM277.878 16.52C277.318 16.52 276.878 16.3733 276.558 16.08C276.265 15.7867 276.118 15.3733 276.118 14.84C276.118 14.3067 276.265 13.8933 276.558 13.6C276.878 13.3067 277.318 13.16 277.878 13.16C278.412 13.16 278.825 13.3067 279.118 13.6C279.412 13.8933 279.558 14.3067 279.558 14.84C279.558 15.96 278.998 16.52 277.878 16.52ZM292.576 37.48C290.763 37.48 289.283 37.0933 288.136 36.32C286.989 35.52 286.136 34.52 285.576 33.32C285.043 32.0933 284.776 30.8533 284.776 29.6C284.776 28.2667 285.029 27.08 285.536 26.04C286.069 25 286.763 24.12 287.616 23.4C288.469 22.68 289.416 22.1333 290.456 21.76C291.496 21.3867 292.509 21.2 293.496 21.2C294.269 21.2 295.003 21.3067 295.696 21.52C296.416 21.7067 297.003 21.9867 297.456 22.36C297.936 22.7333 298.176 23.16 298.176 23.64C298.176 23.9867 298.056 24.2933 297.816 24.56C297.576 24.8 297.229 24.92 296.776 24.92C296.349 24.92 295.989 24.7867 295.696 24.52C295.429 24.2533 295.203 23.9467 295.016 23.6C294.723 23.12 294.376 22.7333 293.976 22.44C293.576 22.1467 292.976 22 292.176 22C290.656 22 289.483 22.6 288.656 23.8C287.829 24.9733 287.416 26.5067 287.416 28.4C287.416 29.76 287.643 31.0267 288.096 32.2C288.576 33.3733 289.309 34.32 290.296 35.04C291.283 35.7333 292.563 36.08 294.136 36.08C294.856 36.08 295.563 35.9867 296.256 35.8C296.949 35.6133 297.603 35.2667 298.216 34.76C298.269 34.7067 298.336 34.7333 298.416 34.84C298.523 34.9467 298.549 35.0267 298.496 35.08C297.563 35.9067 296.629 36.52 295.696 36.92C294.763 37.2933 293.723 37.48 292.576 37.48ZM308.507 37.48C306.854 37.48 305.467 37.12 304.347 36.4C303.227 35.6533 302.387 34.6933 301.827 33.52C301.267 32.3467 300.987 31.1067 300.987 29.8C300.987 28.1733 301.36 26.72 302.107 25.44C302.88 24.1333 303.907 23.1067 305.187 22.36C306.494 21.5867 307.96 21.2 309.587 21.2C311.054 21.2 312.174 21.56 312.947 22.28C313.747 22.9733 314.147 23.9333 314.147 25.16C314.147 25.4533 314.12 25.68 314.067 25.84C314.014 26 313.88 26.08 313.667 26.08H311.347C311.454 24.7733 311.214 23.7733 310.627 23.08C310.067 22.36 309.267 22 308.227 22C306.734 22 305.587 22.56 304.787 23.68C304.014 24.8 303.627 26.32 303.627 28.24C303.627 29.76 303.867 31.1067 304.347 32.28C304.854 33.4533 305.574 34.3867 306.507 35.08C307.467 35.7467 308.6 36.08 309.907 36.08C310.6 36.08 311.307 35.9733 312.027 35.76C312.747 35.5467 313.427 35.2133 314.067 34.76C314.12 34.7067 314.187 34.7467 314.267 34.88C314.374 34.9867 314.4 35.08 314.347 35.16C313.387 35.9867 312.427 36.5867 311.467 36.96C310.507 37.3067 309.52 37.48 308.507 37.48ZM302.907 26.16L302.867 25.64L311.987 25.44V26.08L302.907 26.16ZM339.89 37.48C337.97 37.48 336.223 37.1467 334.65 36.48C333.103 35.7867 331.77 34.84 330.65 33.64C329.557 32.44 328.703 31.0667 328.09 29.52C327.503 27.9467 327.21 26.28 327.21 24.52C327.21 22.36 327.623 20.4667 328.45 18.84C329.303 17.2133 330.423 15.8667 331.81 14.8C333.197 13.7067 334.717 12.8933 336.37 12.36C338.023 11.8267 339.663 11.56 341.29 11.56C343.263 11.56 345.023 11.92 346.57 12.64C348.143 13.3333 349.477 14.28 350.57 15.48C351.663 16.68 352.49 18.04 353.05 19.56C353.637 21.08 353.93 22.64 353.93 24.24C353.93 26.1067 353.557 27.84 352.81 29.44C352.063 31.04 351.037 32.44 349.73 33.64C348.45 34.84 346.957 35.7867 345.25 36.48C343.57 37.1467 341.783 37.48 339.89 37.48ZM341.29 36.64C343.103 36.64 344.73 36.2133 346.17 35.36C347.61 34.48 348.757 33.2 349.61 31.52C350.463 29.84 350.89 27.7867 350.89 25.36C350.89 22.8533 350.423 20.64 349.49 18.72C348.583 16.7733 347.277 15.2533 345.57 14.16C343.89 13.04 341.903 12.48 339.61 12.48C336.65 12.48 334.343 13.44 332.69 15.36C331.063 17.2533 330.25 19.84 330.25 23.12C330.25 25.0133 330.503 26.7867 331.01 28.44C331.543 30.0667 332.303 31.5067 333.29 32.76C334.277 33.9867 335.45 34.9467 336.81 35.64C338.17 36.3067 339.663 36.64 341.29 36.64ZM363.155 37.32C361.848 37.32 360.808 36.9067 360.035 36.08C359.288 35.2267 358.915 34 358.915 32.4V26.28C358.915 25.24 358.822 24.4933 358.635 24.04C358.475 23.56 358.168 23.32 357.715 23.32C357.342 23.32 356.888 23.4533 356.355 23.72C356.248 23.7467 356.155 23.68 356.075 23.52C356.022 23.36 356.048 23.2667 356.155 23.24L360.595 21.24C360.648 21.2133 360.702 21.2 360.755 21.2C360.835 21.2 360.915 21.24 360.995 21.32C361.102 21.3733 361.155 21.44 361.155 21.52V31.08C361.155 32.6533 361.435 33.8267 361.995 34.6C362.555 35.3467 363.395 35.72 364.515 35.72C365.528 35.72 366.542 35.4133 367.555 34.8C368.595 34.1867 369.502 33.36 370.275 32.32L370.475 32.76C369.248 34.3333 368.035 35.4933 366.835 36.24C365.662 36.96 364.435 37.32 363.155 37.32ZM371.755 21.52V32.72C371.755 33.6267 371.862 34.28 372.075 34.68C372.288 35.08 372.648 35.28 373.155 35.28C373.422 35.28 373.715 35.24 374.035 35.16C374.382 35.0533 374.795 34.9067 375.275 34.72C375.408 34.6667 375.502 34.72 375.555 34.88C375.608 35.0133 375.582 35.1067 375.475 35.16L370.795 37.36C370.742 37.3867 370.688 37.4 370.635 37.4C370.422 37.4 370.182 37.12 369.915 36.56C369.648 35.9733 369.515 35.1467 369.515 34.08V26.28C369.515 25.24 369.422 24.4933 369.235 24.04C369.075 23.56 368.768 23.32 368.315 23.32C367.942 23.32 367.488 23.4533 366.955 23.72C366.848 23.7467 366.768 23.68 366.715 23.52C366.662 23.36 366.688 23.2667 366.795 23.24L371.235 21.24C371.288 21.2133 371.328 21.2 371.355 21.2C371.435 21.2 371.515 21.24 371.595 21.32C371.702 21.3733 371.755 21.44 371.755 21.52ZM388.162 37.24C388.055 37.2933 387.948 37.32 387.842 37.32C387.495 37.32 387.162 37.04 386.842 36.48C386.522 35.8933 386.362 35.0533 386.362 33.96V26.8C386.362 25.5467 386.242 24.5733 386.002 23.88C385.788 23.1867 385.482 22.7067 385.082 22.44C384.708 22.1733 384.282 22.04 383.802 22.04C383.135 22.04 382.588 22.2133 382.162 22.56C381.735 22.88 381.415 23.2933 381.202 23.8C380.988 24.3067 380.842 24.8133 380.762 25.32C380.735 25.6933 380.615 26.04 380.402 26.36C380.215 26.68 379.842 26.84 379.282 26.84C378.855 26.84 378.522 26.7333 378.282 26.52C378.042 26.3067 377.922 26.0133 377.922 25.64C377.922 25.16 378.162 24.6667 378.642 24.16C379.122 23.6267 379.722 23.1467 380.442 22.72C381.188 22.2667 381.962 21.9067 382.762 21.64C383.588 21.3467 384.362 21.2 385.082 21.2C386.095 21.2 386.935 21.56 387.602 22.28C388.268 22.9733 388.602 24.08 388.602 25.6V32.68C388.602 33.6133 388.722 34.2933 388.962 34.72C389.202 35.1467 389.588 35.36 390.122 35.36C390.602 35.36 391.268 35.1867 392.122 34.84C392.255 34.7867 392.348 34.84 392.402 35C392.455 35.1333 392.415 35.2267 392.282 35.28L388.162 37.24ZM380.322 37.28C379.468 37.28 378.828 37.0533 378.402 36.6C377.975 36.12 377.762 35.5733 377.762 34.96C377.762 34.2133 378.055 33.6267 378.642 33.2C379.228 32.7467 380.188 32.2933 381.522 31.84L386.762 29.96L386.882 30.4L382.242 32.16C381.628 32.4 381.188 32.6667 380.922 32.96C380.682 33.2533 380.562 33.6267 380.562 34.08C380.562 34.64 380.722 35.08 381.042 35.4C381.362 35.6933 381.775 35.84 382.282 35.84C382.575 35.84 382.855 35.8133 383.122 35.76C383.388 35.68 383.655 35.5733 383.922 35.44L387.322 33.72L387.402 34.2L383.922 36.08C383.122 36.48 382.455 36.7867 381.922 37C381.388 37.1867 380.855 37.28 380.322 37.28ZM393.399 37C393.319 37 393.279 36.92 393.279 36.76C393.279 36.6 393.319 36.52 393.399 36.52C394.439 36.52 395.119 36.3467 395.439 36C395.759 35.6267 395.919 34.88 395.919 33.76V13.08C395.919 12.1467 395.826 11.4667 395.639 11.04C395.453 10.5867 395.119 10.36 394.639 10.36C394.239 10.36 393.626 10.5467 392.799 10.92C392.693 10.9733 392.599 10.92 392.519 10.76C392.466 10.6 392.493 10.5067 392.599 10.48L397.599 8.04C397.679 8.01333 397.746 8 397.799 8C397.879 8 397.959 8.04 398.039 8.12C398.119 8.17333 398.159 8.24 398.159 8.32V33.76C398.159 34.88 398.319 35.6267 398.639 36C398.959 36.3467 399.639 36.52 400.679 36.52C400.759 36.52 400.799 36.6 400.799 36.76C400.799 36.92 400.759 37 400.679 37C400.199 37 399.653 36.9867 399.039 36.96C398.426 36.9333 397.759 36.92 397.039 36.92C396.346 36.92 395.679 36.9333 395.039 36.96C394.399 36.9867 393.853 37 393.399 37ZM403.439 37C403.386 37 403.359 36.92 403.359 36.76C403.359 36.6 403.386 36.52 403.439 36.52C404.399 36.52 405.013 36.4 405.279 36.16C405.546 35.8933 405.479 35.4667 405.079 34.88L399.999 27.96L401.879 26.6L407.079 33.76C407.799 34.8 408.546 35.52 409.319 35.92C410.119 36.32 410.906 36.52 411.679 36.52C411.759 36.52 411.799 36.6 411.799 36.76C411.799 36.92 411.759 37 411.679 37C411.199 37 410.653 36.9867 410.039 36.96C409.426 36.9333 408.759 36.92 408.039 36.92C407.026 36.92 406.159 36.9333 405.439 36.96C404.719 36.9867 404.053 37 403.439 37ZM397.439 30.32L397.279 29.84L403.519 24.8C404.559 23.9733 404.973 23.3067 404.759 22.8C404.573 22.2933 403.826 22.04 402.519 22.04C402.439 22.04 402.399 21.96 402.399 21.8C402.399 21.64 402.439 21.56 402.519 21.56C403.159 21.56 403.799 21.5733 404.439 21.6C405.106 21.6267 405.986 21.64 407.079 21.64C408.093 21.64 408.893 21.6267 409.479 21.6C410.093 21.5733 410.666 21.56 411.199 21.56C411.279 21.56 411.319 21.64 411.319 21.8C411.319 21.96 411.279 22.04 411.199 22.04C410.586 22.04 409.906 22.1467 409.159 22.36C408.413 22.5467 407.626 22.8533 406.799 23.28C405.999 23.7067 405.173 24.2533 404.319 24.92L397.439 30.32ZM424.568 37C424.488 37 424.448 36.92 424.448 36.76C424.448 36.6 424.488 36.52 424.568 36.52C425.608 36.52 426.274 36.3467 426.568 36C426.888 35.6267 427.048 34.88 427.048 33.76V27.28C427.048 25.68 426.754 24.52 426.168 23.8C425.581 23.0533 424.648 22.68 423.368 22.68C422.408 22.68 421.421 22.9867 420.408 23.6C419.394 24.2133 418.528 25.0533 417.808 26.12L417.648 25.64C418.821 24.0667 419.981 22.9067 421.128 22.16C422.301 21.4133 423.488 21.04 424.688 21.04C426.154 21.04 427.288 21.4533 428.088 22.28C428.914 23.08 429.328 24.2933 429.328 25.92V33.76C429.328 34.88 429.474 35.6267 429.768 36C430.088 36.3467 430.768 36.52 431.808 36.52C431.888 36.52 431.928 36.6 431.928 36.76C431.928 36.92 431.888 37 431.808 37C431.354 37 430.808 36.9867 430.168 36.96C429.554 36.9333 428.901 36.92 428.208 36.92C427.514 36.92 426.848 36.9333 426.208 36.96C425.568 36.9867 425.021 37 424.568 37ZM413.808 37C413.728 37 413.688 36.92 413.688 36.76C413.688 36.6 413.728 36.52 413.808 36.52C414.848 36.52 415.514 36.3467 415.808 36C416.128 35.6267 416.288 34.88 416.288 33.76V25.84C416.288 24.96 416.181 24.32 415.968 23.92C415.781 23.4933 415.421 23.28 414.888 23.28C414.621 23.28 414.301 23.3333 413.928 23.44C413.581 23.5467 413.181 23.6933 412.728 23.88C412.621 23.9067 412.528 23.8533 412.448 23.72C412.394 23.5867 412.421 23.4933 412.528 23.44L417.168 21.24C417.248 21.2133 417.328 21.2 417.408 21.2C417.594 21.2 417.834 21.48 418.128 22.04C418.421 22.6 418.568 23.4133 418.568 24.48V33.76C418.568 34.88 418.714 35.6267 419.008 36C419.328 36.3467 420.008 36.52 421.048 36.52C421.128 36.52 421.168 36.6 421.168 36.76C421.168 36.92 421.128 37 421.048 37C420.594 37 420.048 36.9867 419.408 36.96C418.794 36.9333 418.141 36.92 417.448 36.92C416.754 36.92 416.088 36.9333 415.448 36.96C414.808 36.9867 414.261 37 413.808 37ZM434.792 37C434.739 37 434.712 36.92 434.712 36.76C434.712 36.6 434.739 36.52 434.792 36.52C435.832 36.52 436.512 36.3467 436.832 36C437.179 35.6267 437.352 34.88 437.352 33.76V26.28C437.352 25.3467 437.259 24.6667 437.072 24.24C436.885 23.7867 436.539 23.56 436.032 23.56C435.819 23.56 435.565 23.6133 435.272 23.72C434.979 23.8 434.632 23.9333 434.232 24.12C434.125 24.1467 434.032 24.0933 433.952 23.96C433.899 23.8 433.912 23.6933 433.992 23.64L439.192 21.24C439.272 21.2133 439.325 21.2 439.352 21.2C439.405 21.2 439.472 21.24 439.552 21.32C439.632 21.3733 439.672 21.44 439.672 21.52C439.672 21.7333 439.659 22.2533 439.632 23.08C439.605 23.9067 439.592 24.96 439.592 26.24V33.76C439.592 34.88 439.739 35.6267 440.032 36C440.352 36.3467 441.045 36.52 442.112 36.52C442.192 36.52 442.232 36.6 442.232 36.76C442.232 36.92 442.192 37 442.112 37C441.632 37 441.072 36.9867 440.432 36.96C439.819 36.9333 439.165 36.92 438.472 36.92C437.779 36.92 437.112 36.9333 436.472 36.96C435.859 36.9867 435.299 37 434.792 37ZM438.152 16.52C437.592 16.52 437.152 16.3733 436.832 16.08C436.539 15.7867 436.392 15.3733 436.392 14.84C436.392 14.3067 436.539 13.8933 436.832 13.6C437.152 13.3067 437.592 13.16 438.152 13.16C438.685 13.16 439.099 13.3067 439.392 13.6C439.685 13.8933 439.832 14.3067 439.832 14.84C439.832 15.96 439.272 16.52 438.152 16.52ZM456.169 37C456.089 37 456.049 36.92 456.049 36.76C456.049 36.6 456.089 36.52 456.169 36.52C457.209 36.52 457.876 36.3467 458.169 36C458.489 35.6267 458.649 34.88 458.649 33.76V27.28C458.649 25.68 458.356 24.52 457.769 23.8C457.183 23.0533 456.249 22.68 454.969 22.68C454.009 22.68 453.023 22.9867 452.009 23.6C450.996 24.2133 450.129 25.0533 449.409 26.12L449.249 25.64C450.423 24.0667 451.583 22.9067 452.729 22.16C453.903 21.4133 455.089 21.04 456.289 21.04C457.756 21.04 458.889 21.4533 459.689 22.28C460.516 23.08 460.929 24.2933 460.929 25.92V33.76C460.929 34.88 461.076 35.6267 461.369 36C461.689 36.3467 462.369 36.52 463.409 36.52C463.489 36.52 463.529 36.6 463.529 36.76C463.529 36.92 463.489 37 463.409 37C462.956 37 462.409 36.9867 461.769 36.96C461.156 36.9333 460.503 36.92 459.809 36.92C459.116 36.92 458.449 36.9333 457.809 36.96C457.169 36.9867 456.623 37 456.169 37ZM445.409 37C445.329 37 445.289 36.92 445.289 36.76C445.289 36.6 445.329 36.52 445.409 36.52C446.449 36.52 447.116 36.3467 447.409 36C447.729 35.6267 447.889 34.88 447.889 33.76V25.84C447.889 24.96 447.783 24.32 447.569 23.92C447.383 23.4933 447.023 23.28 446.489 23.28C446.223 23.28 445.903 23.3333 445.529 23.44C445.183 23.5467 444.783 23.6933 444.329 23.88C444.223 23.9067 444.129 23.8533 444.049 23.72C443.996 23.5867 444.023 23.4933 444.129 23.44L448.769 21.24C448.849 21.2133 448.929 21.2 449.009 21.2C449.196 21.2 449.436 21.48 449.729 22.04C450.023 22.6 450.169 23.4133 450.169 24.48V33.76C450.169 34.88 450.316 35.6267 450.609 36C450.929 36.3467 451.609 36.52 452.649 36.52C452.729 36.52 452.769 36.6 452.769 36.76C452.769 36.92 452.729 37 452.649 37C452.196 37 451.649 36.9867 451.009 36.96C450.396 36.9333 449.743 36.92 449.049 36.92C448.356 36.92 447.689 36.9333 447.049 36.96C446.409 36.9867 445.863 37 445.409 37ZM473.233 37.48C471.58 37.48 470.193 37.12 469.073 36.4C467.953 35.6533 467.113 34.6933 466.553 33.52C465.993 32.3467 465.713 31.1067 465.713 29.8C465.713 28.1733 466.087 26.72 466.833 25.44C467.607 24.1333 468.633 23.1067 469.913 22.36C471.22 21.5867 472.687 21.2 474.313 21.2C475.78 21.2 476.9 21.56 477.673 22.28C478.473 22.9733 478.873 23.9333 478.873 25.16C478.873 25.4533 478.847 25.68 478.793 25.84C478.74 26 478.607 26.08 478.393 26.08H476.073C476.18 24.7733 475.94 23.7733 475.353 23.08C474.793 22.36 473.993 22 472.953 22C471.46 22 470.313 22.56 469.513 23.68C468.74 24.8 468.353 26.32 468.353 28.24C468.353 29.76 468.593 31.1067 469.073 32.28C469.58 33.4533 470.3 34.3867 471.233 35.08C472.193 35.7467 473.327 36.08 474.633 36.08C475.327 36.08 476.033 35.9733 476.753 35.76C477.473 35.5467 478.153 35.2133 478.793 34.76C478.847 34.7067 478.913 34.7467 478.993 34.88C479.1 34.9867 479.127 35.08 479.073 35.16C478.113 35.9867 477.153 36.5867 476.193 36.96C475.233 37.3067 474.247 37.48 473.233 37.48ZM467.633 26.16L467.593 25.64L476.713 25.44V26.08L467.633 26.16Z" fill="black"/>
<path d="M242.64 76.6L243.24 75.56H251.48L251.76 76.6H242.64ZM262.44 88.52C262.547 88.52 262.6 88.6 262.6 88.76C262.6 88.92 262.547 89 262.44 89C261.64 89 260.813 88.9733 259.96 88.92C259.133 88.8667 258.333 88.84 257.56 88.84C256.68 88.84 255.907 88.8667 255.24 88.92C254.6 88.9733 253.88 89 253.08 89C252.973 89 252.92 88.92 252.92 88.76C252.92 88.6 252.973 88.52 253.08 88.52C254.28 88.52 255 88.3067 255.24 87.88C255.48 87.4533 255.28 86.6133 254.64 85.36L246.28 68.36L247.92 65.68L240 83.52C239.307 85.1467 239.28 86.3867 239.92 87.24C240.587 88.0933 241.707 88.52 243.28 88.52C243.413 88.52 243.48 88.6 243.48 88.76C243.48 88.92 243.413 89 243.28 89C242.48 89 241.747 88.9733 241.08 88.92C240.413 88.8667 239.573 88.84 238.56 88.84C237.547 88.84 236.733 88.8667 236.12 88.92C235.533 88.9733 234.8 89 233.92 89C233.813 89 233.76 88.92 233.76 88.76C233.76 88.6 233.813 88.52 233.92 88.52C234.64 88.52 235.253 88.3733 235.76 88.08C236.293 87.7867 236.813 87.2533 237.32 86.48C237.827 85.68 238.387 84.5733 239 83.16L247.6 63.76C247.653 63.68 247.773 63.64 247.96 63.64C248.147 63.64 248.253 63.68 248.28 63.76L258.08 83.52C258.693 84.8 259.24 85.8133 259.72 86.56C260.2 87.28 260.653 87.7867 261.08 88.08C261.507 88.3733 261.96 88.52 262.44 88.52ZM279.574 73.56C279.628 73.56 279.654 73.64 279.654 73.8C279.654 73.96 279.628 74.04 279.574 74.04C278.828 74.04 278.174 74.3067 277.614 74.84C277.081 75.3733 276.561 76.2267 276.054 77.4L271.094 89C271.068 89.1067 270.934 89.16 270.694 89.16C270.454 89.16 270.294 89.1067 270.214 89L264.294 76.88C263.708 75.6533 263.214 74.88 262.814 74.56C262.414 74.2133 261.934 74.04 261.374 74.04C261.294 74.04 261.254 73.96 261.254 73.8C261.254 73.64 261.294 73.56 261.374 73.56C261.801 73.56 262.281 73.5733 262.814 73.6C263.348 73.6267 264.028 73.64 264.854 73.64C265.894 73.64 266.774 73.6267 267.494 73.6C268.241 73.5733 268.934 73.56 269.574 73.56C269.654 73.56 269.694 73.64 269.694 73.8C269.694 73.96 269.654 74.04 269.574 74.04C268.748 74.04 268.094 74.1467 267.614 74.36C267.161 74.5733 267.094 74.9867 267.414 75.6L272.294 85.28L270.574 88.16L275.054 77.32C275.481 76.2533 275.468 75.44 275.014 74.88C274.561 74.32 273.748 74.04 272.574 74.04C272.521 74.04 272.494 73.96 272.494 73.8C272.494 73.64 272.521 73.56 272.574 73.56C273.214 73.56 273.814 73.5733 274.374 73.6C274.961 73.6267 275.708 73.64 276.614 73.64C277.228 73.64 277.734 73.6267 278.134 73.6C278.534 73.5733 279.014 73.56 279.574 73.56ZM288.673 89.52C287.02 89.52 285.593 89.1333 284.393 88.36C283.193 87.5867 282.26 86.56 281.593 85.28C280.927 83.9733 280.593 82.5733 280.593 81.08C280.593 79.6933 280.86 78.4933 281.393 77.48C281.927 76.4667 282.62 75.64 283.473 75C284.353 74.3333 285.3 73.84 286.313 73.52C287.353 73.2 288.367 73.04 289.353 73.04C291.033 73.04 292.473 73.44 293.673 74.24C294.873 75.04 295.78 76.0667 296.393 77.32C297.033 78.5733 297.353 79.9067 297.353 81.32C297.353 82.9733 296.953 84.4133 296.153 85.64C295.353 86.8667 294.3 87.8267 292.993 88.52C291.687 89.1867 290.247 89.52 288.673 89.52ZM289.873 88.72C291.047 88.72 291.953 88.2133 292.593 87.2C293.233 86.16 293.553 84.6267 293.553 82.6C293.553 80.76 293.287 79.1867 292.753 77.88C292.247 76.5733 291.58 75.5733 290.753 74.88C289.927 74.1867 289.02 73.84 288.033 73.84C286.86 73.84 285.953 74.3333 285.313 75.32C284.673 76.28 284.353 77.7333 284.353 79.68C284.353 81.44 284.593 83 285.073 84.36C285.553 85.72 286.207 86.7867 287.033 87.56C287.887 88.3333 288.833 88.72 289.873 88.72ZM308.047 89.48C306.207 89.48 304.7 89.0933 303.527 88.32C302.353 87.52 301.473 86.5067 300.887 85.28C300.327 84.0533 300.047 82.8133 300.047 81.56C300.047 80.2267 300.313 79.04 300.847 78C301.407 76.96 302.14 76.0933 303.047 75.4C303.953 74.68 304.94 74.1333 306.007 73.76C307.1 73.3867 308.18 73.2 309.247 73.2C310.02 73.2 310.78 73.3067 311.527 73.52C312.273 73.7333 312.887 74.0533 313.367 74.48C313.873 74.9067 314.127 75.4133 314.127 76C314.127 76.4267 313.967 76.8133 313.647 77.16C313.327 77.48 312.847 77.64 312.207 77.64C311.62 77.64 311.153 77.4933 310.807 77.2C310.487 76.88 310.22 76.44 310.007 75.88C309.793 75.2933 309.54 74.84 309.247 74.52C308.953 74.2 308.46 74.04 307.767 74.04C306.487 74.04 305.487 74.6267 304.767 75.8C304.047 76.9467 303.687 78.44 303.687 80.28C303.687 81.64 303.887 82.88 304.287 84C304.713 85.12 305.393 86.0267 306.327 86.72C307.26 87.3867 308.5 87.72 310.047 87.72C310.82 87.72 311.5 87.6267 312.087 87.44C312.7 87.2533 313.327 86.96 313.967 86.56C314.02 86.5067 314.087 86.5333 314.167 86.64C314.273 86.7467 314.3 86.8267 314.247 86.88C313.313 87.7333 312.353 88.3867 311.367 88.84C310.407 89.2667 309.3 89.48 308.047 89.48ZM328.086 89.24C327.98 89.2933 327.86 89.32 327.726 89.32C327.3 89.32 326.873 89.0133 326.446 88.4C326.02 87.7867 325.806 86.8933 325.806 85.72V78.8C325.806 77.68 325.713 76.7733 325.526 76.08C325.366 75.3867 325.126 74.88 324.806 74.56C324.486 74.24 324.073 74.08 323.566 74.08C323.086 74.08 322.66 74.2133 322.286 74.48C321.94 74.72 321.66 75.0667 321.446 75.52C321.26 75.9733 321.14 76.5467 321.086 77.24C321.033 77.88 320.833 78.3733 320.486 78.72C320.166 79.0667 319.686 79.24 319.046 79.24C318.46 79.24 318.02 79.1067 317.726 78.84C317.46 78.5733 317.326 78.2133 317.326 77.76C317.326 77.2 317.593 76.6533 318.126 76.12C318.66 75.5867 319.326 75.1067 320.126 74.68C320.926 74.2267 321.766 73.8667 322.646 73.6C323.526 73.3333 324.326 73.2 325.046 73.2C326.166 73.2 327.113 73.56 327.886 74.28C328.66 74.9733 329.046 76.08 329.046 77.6V84.68C329.046 85.5067 329.18 86.1333 329.446 86.56C329.713 86.9867 330.1 87.2 330.606 87.2C331.033 87.2 331.513 87.08 332.046 86.84C332.18 86.7867 332.273 86.84 332.326 87C332.38 87.1333 332.34 87.2267 332.206 87.28L328.086 89.24ZM319.886 89.28C319.06 89.28 318.406 89.0533 317.926 88.6C317.446 88.1467 317.206 87.5467 317.206 86.8C317.206 85.92 317.54 85.2667 318.206 84.84C318.9 84.4133 319.98 83.96 321.446 83.48L326.206 81.88L326.326 82.44L322.926 83.68C322.26 83.9467 321.78 84.24 321.486 84.56C321.193 84.8533 321.046 85.2267 321.046 85.68C321.046 86.24 321.206 86.68 321.526 87C321.846 87.32 322.246 87.48 322.726 87.48C322.966 87.48 323.246 87.44 323.566 87.36C323.913 87.28 324.273 87.1467 324.646 86.96L327.246 85.6L327.326 86.2L323.846 88.08C323.153 88.4533 322.46 88.7467 321.766 88.96C321.1 89.1733 320.473 89.28 319.886 89.28ZM339.603 89.48C338.963 89.48 338.323 89.3733 337.683 89.16C337.07 88.9467 336.55 88.5867 336.123 88.08C335.723 87.5733 335.523 86.8533 335.523 85.92V76.88C335.523 76.2933 335.456 75.84 335.323 75.52C335.216 75.2 335.016 74.9867 334.723 74.88C334.43 74.7467 334.016 74.68 333.483 74.68C333.376 74.68 333.323 74.5733 333.323 74.36C333.323 74.1467 333.376 74.04 333.483 74.04C334.736 73.9867 335.75 73.6933 336.523 73.16C337.323 72.6 337.883 71.8133 338.203 70.8C338.23 70.6933 338.336 70.64 338.523 70.64C338.71 70.64 338.803 70.6933 338.803 70.8V84.6C338.803 85.6933 339.07 86.48 339.603 86.96C340.163 87.44 340.883 87.68 341.763 87.68C342.403 87.68 342.99 87.56 343.523 87.32C344.083 87.0533 344.55 86.7733 344.923 86.48C345.003 86.4267 345.096 86.4667 345.203 86.6C345.31 86.7067 345.31 86.8 345.203 86.88C344.216 87.7867 343.283 88.4533 342.403 88.88C341.55 89.28 340.616 89.48 339.603 89.48ZM343.963 75.56C342.896 75.32 341.856 75.16 340.843 75.08C339.856 74.9733 338.79 74.92 337.643 74.92V73.96C338.736 73.96 339.79 73.92 340.803 73.84C341.843 73.76 342.95 73.6667 344.123 73.56C344.176 73.56 344.23 73.6533 344.283 73.84C344.363 74.0267 344.403 74.2533 344.403 74.52C344.403 74.76 344.35 75 344.243 75.24C344.163 75.48 344.07 75.5867 343.963 75.56ZM354.92 89.48C353.213 89.48 351.773 89.12 350.6 88.4C349.426 87.68 348.533 86.7333 347.92 85.56C347.306 84.36 347 83.0933 347 81.76C347 80.1867 347.386 78.76 348.16 77.48C348.96 76.1733 350.026 75.1333 351.36 74.36C352.72 73.5867 354.253 73.2 355.96 73.2C357.533 73.2 358.746 73.56 359.6 74.28C360.453 74.9733 360.88 75.9333 360.88 77.16C360.88 77.4533 360.853 77.7067 360.8 77.92C360.746 78.1333 360.626 78.24 360.44 78.24H357.12C357.2 76.96 357.026 75.9333 356.6 75.16C356.173 74.3867 355.48 74 354.52 74C353.32 74 352.36 74.56 351.64 75.68C350.92 76.7733 350.56 78.2533 350.56 80.12C350.56 81.64 350.8 82.9733 351.28 84.12C351.786 85.24 352.493 86.12 353.4 86.76C354.333 87.4 355.44 87.72 356.72 87.72C357.386 87.72 358.08 87.6267 358.8 87.44C359.52 87.2267 360.186 86.92 360.8 86.52C360.853 86.4667 360.92 86.4933 361 86.6C361.106 86.7067 361.133 86.8 361.08 86.88C360.12 87.8133 359.133 88.48 358.12 88.88C357.106 89.28 356.04 89.48 354.92 89.48ZM349.4 78.32L349.36 77.64L358.24 77.44V78.24L349.4 78.32Z" fill="black"/>
<path d="M0.639069 87.6816C11.1841 76.6623 51.6857 19.3608 59.8115 5.72137C61.3742 3.3649 62.6822 4.03818 63.4635 4.87978C67.7116 21.2965 79.8309 80.8703 82.5337 98.151C82.3832 101.175 81.3472 101.321 81.3472 101.321C78.9396 102.477 49.9321 81.9307 45.2557 80.0118C41.5459 77.9976 26.2434 70.3671 25.5026 69.7892C22.0532 65.5196 36.8521 65.2895 46.2801 63.0396C72.0292 57.8442 95.3706 50.2642 117.583 42.5777C108.636 47.3355 80.6585 56.4696 69.4653 59.7125C67.237 60.2904 37.9228 67.4216 34.9538 68.2632C32.0716 69.0823 31.0008 69.217 31.1513 69.5031C31.3018 69.7892 75.7043 93.8364 76.7461 94.4087C74.8304 76.3313 63.9555 33.1967 60.263 14.6479C47.9817 33.4379 19.6977 70.9506 1.88919 87.6423L0.639069 87.6872V87.6816Z" fill="black"/>
<path d="M88.2518 56.0824L92.9572 54.8593C81.0752 129.15 231.686 79.7706 158.091 23.9503C127.66 2.69723 94.2073 15.4895 79.1769 46.6117C96.7654 -1.58369 161.795 0.772782 180.778 47.7619C190.501 82.3907 139.837 103.352 112.108 96.0975C94.1147 92.4282 83.3034 71.9325 88.2518 56.0768V56.0824Z" fill="black"/>
<path d="M91.4582 49.3329L97.4425 47.5543C103.12 37.5673 124.772 25.4708 134.477 21.5434C122.613 23.0077 96.4644 37.6964 91.4639 49.3329H91.4582Z" fill="black"/>
<line x1="209.5" y1="14" x2="209.5" y2="93" stroke="black"/>
</svg>
