<?xml version="1.0" encoding="UTF-8"?>
<svg id="a" data-name="Layer 1" xmlns="http://www.w3.org/2000/svg" viewBox="0 0 2400 1680">
  <rect width="2400" height="1680" style="fill: #fff;"/>
  <path d="M40.47,1303.43c235.41,1.1,470.82,2.19,619.18,.82,148.36-1.37,209.68-5.2,258.68-15.88,49-10.67,85.68-28.19,105.66-43.25,19.98-15.06,23.27-27.65-10.95-25.73-34.22,1.92-105.94,18.34-138.24,45.71-32.3,27.37-25.18,65.7,45.17,94.16,70.35,28.47,203.93,47.08,323.53,44.67,119.6-2.41,225.22-25.86,275.66-55.2,50.44-29.35,45.69-64.6,23.69-85.44-22-20.85-61.25-27.29-84.38-31.04-23.13-3.75-30.12-4.81-30.38,.67-.25,5.47,6.25,17.47-.37,34.1-6.63,16.62-26.38,37.88-74.18,53.47-47.81,15.6-123.67,25.55-186.23,15.19-62.57-10.35-111.84-41.01-108.83-49.77,3.01-8.76,58.31,4.38,117.98,3.56,59.67-.82,123.73-15.6,158.22-32.85,34.49-17.25,39.42-36.95,36.13-57.76-3.28-20.8-14.78-42.7-37.5-42.98-22.72-.27-56.66,21.08-92.8,27.92-36.13,6.84-74.46-.82-98.09-6.74-23.63-5.92-32.58-10.08-36.01-15.67-3.43-5.58-1.33-12.58,8.79-112.08,10.12-99.5,28.28-291.5,37.36-395.5,9.08-104,9.08-120,9.2-126.69,.12-6.69,.37-4.08,13.88-4.81,13.51-.73,40.28-4.81,51.75-44.07,11.47-39.27,7.64-113.72-1.12-155.33-8.76-41.61-22.45-50.37-36.68-44.89-14.23,5.48-29.02,25.18-31.48,46.81-2.46,21.63,7.39,45.17,20.4,43.45,13.01-1.72,29.16-28.69,10.35-36.82-18.82-8.13-72.61,2.58-106.25,26.69-33.65,24.11-47.15,61.61-102.78,94.37-55.64,32.77-153.42,60.8-203.4,57.02-49.98-3.78-52.17-39.36-42.32-51.13,9.85-11.77,31.75,.27,34.27,30.77,2.51,30.5-14.36,79.44-41.65,162.89-27.28,83.45-64.98,201.41-91.03,275.76-26.05,74.35-40.47,105.07-36.17,116.33,4.29,11.26,27.28,3.05,80.66-8.72,53.38-11.77,137.14-27.1,206.94-22.99,69.8,4.11,125.64,27.65,139.6,57.76,13.96,30.11-13.96,66.79-83.83,83.57-69.87,16.78-181.69,13.66-253.8-2.91-72.11-16.57-104.51-46.6-122.88-63.97-18.38-17.37-22.73-22.1-8.53-15.46,14.2,6.64,46.95,24.64,117.2,33.26,70.25,8.63,178,7.88,236.13-.37,58.13-8.25,66.63-24,70-33.87,3.37-9.87,1.62-13.88-17.76-74.38-19.38-60.5-56.37-177.5-84.49-263.63-28.12-86.13-47.37-141.38-55.87-169.81-8.5-28.43-6.25-30.05,24.02-29.33,30.27,.72,88.55,3.77,135.27,4.34,46.72,.58,81.88-1.32,103.83-2.51,21.95-1.19,30.7-1.66,37.51-6.39,6.81-4.73,11.67-13.72,30.42-45.34,18.75-31.62,51.39-85.89,93.4-111.75,42.02-25.87,93.42-23.34,138-.73,44.59,22.61,82.36,65.32,126.71,92.69,44.34,27.37,95.26,39.42,125.51,41.32,30.25,1.9,39.83-6.34,39.25-17.51-.58-11.17-11.32-25.28-27.27-27.8-15.96-2.52-37.14,6.56-50.25,26.77-13.11,20.21-18.14,51.55-45.87,133.39-27.72,81.84-78.13,214.19-110.16,291.93-32.03,77.74-45.67,100.87-33.61,102.04,12.06,1.17,49.84-19.64,117.18-24.29,67.34-4.65,164.24,6.84,222.27,20.8,58.03,13.96,77.19,30.38,66.52,55.02-10.68,24.64-51.19,57.48-104.28,74.61-53.1,17.12-118.78,18.53-171.33,5.66-52.56-12.87-91.99-40-110.06-63.14-18.07-23.15-14.79-42.31-7.95-43.24,6.84-.93,17.24,16.36,48.92,33.57,31.68,17.21,84.64,34.33,137.01,34.71,52.37,.38,104.17-16,133.94-29.31,29.77-13.31,37.52-23.56,37.71-38.06,.19-14.5-7.18-33.25-38.21-114.65-31.03-81.41-85.71-225.46-113.55-297.87-27.84-72.4-28.84-73.15-35.92-74.18-7.08-1.02-20.24-2.32-67.13-2.72-46.89-.4-127.52,.08-180.32-.08-52.8-.16-77.76-.98-90.06,.73-12.3,1.72-11.93,5.97-3.67,100.94,8.26,94.97,24.4,280.66,32.59,375.29,8.19,94.64,8.44,98.22,9.21,100.02,.78,1.79,2.08,1.79,17.96,1.79s46.32,0,65.65,8.49c19.33,8.49,27.54,25.46,32.48,35.88,4.93,10.43,6.59,14.3,9.47,16.48,2.88,2.18,6.98,2.66,28.85,5.41,21.88,2.75,61.53,7.77,89.86,20.37,28.33,12.6,45.33,32.79,53.56,51.36,8.23,18.58,7.68,35.55,10.8,44.04,3.12,8.49,9.92,8.49,26.34,8.49s42.48,0,166.09,.55c123.61,.55,344.79,1.64,565.97,2.74" style="fill: none; fill-rule: evenodd; stroke: #332c2b; stroke-linecap: round; stroke-linejoin: round; stroke-width: 8.4px;"/>
</svg>